<mxfile host="65bd71144e" pages="5">
    <diagram id="9YZt-gtbpCS2y8PjOlEq" name="monolithic-architecture">
        <mxGraphModel dx="738" dy="495" grid="1" gridSize="10" guides="1" tooltips="1" connect="1" arrows="1" fold="1" page="1" pageScale="1" pageWidth="850" pageHeight="1100" math="0" shadow="0">
            <root>
                <mxCell id="0"/>
                <mxCell id="1" parent="0"/>
                <mxCell id="yftX4vZoFyeo2XI1cVny-1" value="" style="rounded=1;whiteSpace=wrap;html=1;strokeWidth=3;" parent="1" vertex="1">
                    <mxGeometry x="577.56" y="170" width="160" height="160" as="geometry"/>
                </mxCell>
                <mxCell id="yftX4vZoFyeo2XI1cVny-3" value="" style="ellipse;whiteSpace=wrap;html=1;strokeWidth=2;fillWeight=2;hachureGap=8;fillColor=#FF3333;fillStyle=dots;sketch=1;rotation=-45;dashed=1;" parent="1" vertex="1">
                    <mxGeometry x="577.56" y="187" width="60" height="30" as="geometry"/>
                </mxCell>
                <mxCell id="yftX4vZoFyeo2XI1cVny-4" value="" style="ellipse;whiteSpace=wrap;html=1;strokeWidth=2;fillWeight=2;hachureGap=8;fillColor=#0000CC;fillStyle=dots;sketch=1;rotation=-45;dashed=1;" parent="1" vertex="1">
                    <mxGeometry x="566.15" y="211.22" width="138.36" height="30" as="geometry"/>
                </mxCell>
                <mxCell id="yftX4vZoFyeo2XI1cVny-5" value="" style="ellipse;whiteSpace=wrap;html=1;strokeWidth=2;fillWeight=2;hachureGap=8;fillColor=#FF3333;fillStyle=dots;sketch=1;rotation=-45;dashed=1;" parent="1" vertex="1">
                    <mxGeometry x="560" y="237.7" width="199.73" height="30" as="geometry"/>
                </mxCell>
                <mxCell id="yftX4vZoFyeo2XI1cVny-6" value="" style="ellipse;whiteSpace=wrap;html=1;strokeWidth=2;fillWeight=2;hachureGap=8;fillColor=#0000CC;fillStyle=dots;sketch=1;rotation=-45;dashed=1;" parent="1" vertex="1">
                    <mxGeometry x="617.56" y="261.88" width="138.36" height="30" as="geometry"/>
                </mxCell>
                <mxCell id="yftX4vZoFyeo2XI1cVny-7" value="" style="ellipse;whiteSpace=wrap;html=1;strokeWidth=2;fillWeight=2;hachureGap=8;fillColor=#FF3333;fillStyle=dots;sketch=1;rotation=-45;dashed=1;" parent="1" vertex="1">
                    <mxGeometry x="680.56" y="286" width="60" height="30" as="geometry"/>
                </mxCell>
                <mxCell id="yftX4vZoFyeo2XI1cVny-8" value="Back" style="text;html=1;strokeColor=none;fillColor=none;align=center;verticalAlign=middle;whiteSpace=wrap;rounded=0;dashed=1;strokeWidth=3;fontColor=#0000CC;fontStyle=1" parent="1" vertex="1">
                    <mxGeometry x="259.99999999999994" y="330" width="60" height="30" as="geometry"/>
                </mxCell>
                <mxCell id="yftX4vZoFyeo2XI1cVny-9" value="Front" style="text;html=1;strokeColor=none;fillColor=none;align=center;verticalAlign=middle;whiteSpace=wrap;rounded=0;dashed=1;strokeWidth=3;fontColor=#FF3333;fontStyle=1" parent="1" vertex="1">
                    <mxGeometry x="359.99999999999994" y="330" width="60" height="30" as="geometry"/>
                </mxCell>
                <mxCell id="Ywb1gOYlwcAk9zeYxUiz-3" value="" style="rounded=1;whiteSpace=wrap;html=1;strokeWidth=3;fillColor=#FF3333;gradientColor=#0000CC;gradientDirection=west;sketch=0;fillStyle=solid;glass=0;shadow=0;" parent="1" vertex="1">
                    <mxGeometry x="259.99999999999994" y="170" width="160" height="160" as="geometry"/>
                </mxCell>
            </root>
        </mxGraphModel>
    </diagram>
    <diagram id="MsDbIhtKTxIqKhxCRkUP" name="back-front-layers-separation">
        <mxGraphModel dx="438" dy="495" grid="1" gridSize="10" guides="1" tooltips="1" connect="1" arrows="1" fold="1" page="1" pageScale="1" pageWidth="850" pageHeight="1100" math="0" shadow="0">
            <root>
                <mxCell id="vSREpnfkVAFtM0ynblTt-0"/>
                <mxCell id="vSREpnfkVAFtM0ynblTt-1" parent="vSREpnfkVAFtM0ynblTt-0"/>
                <mxCell id="SrxmTXKETb56-X1Sbaju-1" value="" style="rounded=1;whiteSpace=wrap;html=1;strokeWidth=2;fillWeight=4;hachureGap=8;hachureAngle=45;fillColor=#0000CC;sketch=1;glass=0;fillStyle=solid;fontSize=14;fontColor=#FF3333;" parent="vSREpnfkVAFtM0ynblTt-1" vertex="1">
                    <mxGeometry x="230" y="160" width="60" height="160" as="geometry"/>
                </mxCell>
                <mxCell id="qzlLxI9XlkP0cFf6hQbi-0" value="" style="rounded=1;whiteSpace=wrap;html=1;strokeWidth=2;fillWeight=4;hachureGap=8;hachureAngle=45;fillColor=#FF3333;sketch=1;glass=0;fillStyle=solid;fontSize=14;fontColor=#FF3333;" parent="vSREpnfkVAFtM0ynblTt-1" vertex="1">
                    <mxGeometry x="320" y="160" width="60" height="160" as="geometry"/>
                </mxCell>
                <mxCell id="YW20hQ9C-jznjRkErKJU-0" value="Back" style="text;html=1;strokeColor=none;fillColor=none;align=center;verticalAlign=middle;whiteSpace=wrap;rounded=0;dashed=1;strokeWidth=3;fontColor=#0000CC;fontStyle=1" parent="vSREpnfkVAFtM0ynblTt-1" vertex="1">
                    <mxGeometry x="230" y="320" width="60" height="30" as="geometry"/>
                </mxCell>
                <mxCell id="YW20hQ9C-jznjRkErKJU-1" value="Front" style="text;html=1;strokeColor=none;fillColor=none;align=center;verticalAlign=middle;whiteSpace=wrap;rounded=0;dashed=1;strokeWidth=3;fontColor=#FF3333;fontStyle=1" parent="vSREpnfkVAFtM0ynblTt-1" vertex="1">
                    <mxGeometry x="320" y="320" width="60" height="30" as="geometry"/>
                </mxCell>
            </root>
        </mxGraphModel>
    </diagram>
    <diagram id="G98a9rpOSMOM8z4a3CS2" name="back-micro-services">
        <mxGraphModel dx="438" dy="495" grid="1" gridSize="10" guides="1" tooltips="1" connect="1" arrows="1" fold="1" page="1" pageScale="1" pageWidth="850" pageHeight="1100" math="0" shadow="0">
            <root>
                <mxCell id="08Yrf13FnL13I_xNMtg8-0"/>
                <mxCell id="08Yrf13FnL13I_xNMtg8-1" parent="08Yrf13FnL13I_xNMtg8-0"/>
                <mxCell id="liiPGBRCtPzQbA6j8pJo-0" value="" style="rounded=1;whiteSpace=wrap;html=1;strokeWidth=2;fillWeight=4;hachureGap=8;hachureAngle=45;fillColor=none;sketch=1;glass=0;fillStyle=hachure;fontSize=14;fontColor=#FF3333;" parent="08Yrf13FnL13I_xNMtg8-1" vertex="1">
                    <mxGeometry x="310" y="150" width="60" height="160" as="geometry"/>
                </mxCell>
                <mxCell id="Fh5V1AX0UagbB8hkqlH6-0" value="" style="rounded=1;whiteSpace=wrap;html=1;strokeWidth=2;fillWeight=4;hachureGap=8;hachureAngle=45;fillColor=#0000CC;sketch=1;glass=0;fillStyle=solid;fontSize=14;fontColor=#FF3333;arcSize=0;" parent="08Yrf13FnL13I_xNMtg8-1" vertex="1">
                    <mxGeometry x="325" y="170" width="30" height="30" as="geometry"/>
                </mxCell>
                <mxCell id="Fh5V1AX0UagbB8hkqlH6-1" value="" style="rounded=1;whiteSpace=wrap;html=1;strokeWidth=2;fillWeight=4;hachureGap=8;hachureAngle=45;fillColor=#FF3333;sketch=1;glass=0;fillStyle=solid;fontSize=14;fontColor=#FF3333;" parent="08Yrf13FnL13I_xNMtg8-1" vertex="1">
                    <mxGeometry x="400" y="150" width="60" height="160" as="geometry"/>
                </mxCell>
                <mxCell id="Fh5V1AX0UagbB8hkqlH6-2" value="Back" style="text;html=1;strokeColor=none;fillColor=none;align=center;verticalAlign=middle;whiteSpace=wrap;rounded=0;dashed=1;strokeWidth=3;fontColor=#0000CC;fontStyle=1" parent="08Yrf13FnL13I_xNMtg8-1" vertex="1">
                    <mxGeometry x="310" y="310" width="60" height="30" as="geometry"/>
                </mxCell>
                <mxCell id="Fh5V1AX0UagbB8hkqlH6-3" value="Front" style="text;html=1;strokeColor=none;fillColor=none;align=center;verticalAlign=middle;whiteSpace=wrap;rounded=0;dashed=1;strokeWidth=3;fontColor=#FF3333;fontStyle=1" parent="08Yrf13FnL13I_xNMtg8-1" vertex="1">
                    <mxGeometry x="400" y="310" width="60" height="30" as="geometry"/>
                </mxCell>
                <mxCell id="oDAsPoRV3xYNeqNTKpen-0" value="" style="rounded=1;whiteSpace=wrap;html=1;strokeWidth=2;fillWeight=4;hachureGap=8;hachureAngle=45;fillColor=#0000CC;sketch=1;glass=0;fillStyle=solid;fontSize=14;fontColor=#FF3333;arcSize=0;" parent="08Yrf13FnL13I_xNMtg8-1" vertex="1">
                    <mxGeometry x="325" y="215" width="30" height="30" as="geometry"/>
                </mxCell>
                <mxCell id="oDAsPoRV3xYNeqNTKpen-1" value="" style="rounded=1;whiteSpace=wrap;html=1;strokeWidth=2;fillWeight=4;hachureGap=8;hachureAngle=45;fillColor=#0000CC;sketch=1;glass=0;fillStyle=solid;fontSize=14;fontColor=#FF3333;arcSize=0;" parent="08Yrf13FnL13I_xNMtg8-1" vertex="1">
                    <mxGeometry x="325" y="260" width="30" height="30" as="geometry"/>
                </mxCell>
            </root>
        </mxGraphModel>
    </diagram>
    <diagram id="U8a6prwhg5e3a0YqYAT8" name="micro-front-end-layer">
        <mxGraphModel dx="438" dy="495" grid="1" gridSize="10" guides="1" tooltips="1" connect="1" arrows="1" fold="1" page="1" pageScale="1" pageWidth="850" pageHeight="1100" math="0" shadow="0">
            <root>
                <mxCell id="xGAVFQmcOM1XZsZsjXyp-0"/>
                <mxCell id="xGAVFQmcOM1XZsZsjXyp-1" parent="xGAVFQmcOM1XZsZsjXyp-0"/>
                <mxCell id="Rb279vgmRleAhh0W8-I5-4" value="" style="rounded=1;whiteSpace=wrap;html=1;strokeWidth=2;fillWeight=4;hachureGap=8;hachureAngle=45;fillColor=none;sketch=1;glass=0;fillStyle=hachure;fontSize=14;fontColor=#FF3333;" parent="xGAVFQmcOM1XZsZsjXyp-1" vertex="1">
                    <mxGeometry x="310" y="150" width="60" height="160" as="geometry"/>
                </mxCell>
                <mxCell id="Rb279vgmRleAhh0W8-I5-8" value="" style="rounded=1;whiteSpace=wrap;html=1;strokeWidth=2;fillWeight=4;hachureGap=8;hachureAngle=45;fillColor=none;sketch=1;glass=0;fillStyle=hachure;fontSize=14;fontColor=#FF3333;" parent="xGAVFQmcOM1XZsZsjXyp-1" vertex="1">
                    <mxGeometry x="400" y="150" width="60" height="160" as="geometry"/>
                </mxCell>
                <mxCell id="Rb279vgmRleAhh0W8-I5-0" value="" style="rounded=1;whiteSpace=wrap;html=1;strokeWidth=2;fillWeight=4;hachureGap=8;hachureAngle=45;fillColor=#0000CC;sketch=1;glass=0;fillStyle=solid;fontSize=14;fontColor=#FF3333;arcSize=0;" parent="xGAVFQmcOM1XZsZsjXyp-1" vertex="1">
                    <mxGeometry x="325" y="170" width="30" height="30" as="geometry"/>
                </mxCell>
                <mxCell id="Rb279vgmRleAhh0W8-I5-2" value="Back" style="text;html=1;strokeColor=none;fillColor=none;align=center;verticalAlign=middle;whiteSpace=wrap;rounded=0;dashed=1;strokeWidth=3;fontColor=#0000CC;fontStyle=1" parent="xGAVFQmcOM1XZsZsjXyp-1" vertex="1">
                    <mxGeometry x="310" y="310" width="60" height="30" as="geometry"/>
                </mxCell>
                <mxCell id="Rb279vgmRleAhh0W8-I5-3" value="Front" style="text;html=1;strokeColor=none;fillColor=none;align=center;verticalAlign=middle;whiteSpace=wrap;rounded=0;dashed=1;strokeWidth=3;fontColor=#FF3333;fontStyle=1" parent="xGAVFQmcOM1XZsZsjXyp-1" vertex="1">
                    <mxGeometry x="400" y="310" width="60" height="30" as="geometry"/>
                </mxCell>
                <mxCell id="Rb279vgmRleAhh0W8-I5-5" value="" style="rounded=1;whiteSpace=wrap;html=1;strokeWidth=2;fillWeight=4;hachureGap=8;hachureAngle=45;fillColor=#0000CC;sketch=1;glass=0;fillStyle=solid;fontSize=14;fontColor=#FF3333;arcSize=0;" parent="xGAVFQmcOM1XZsZsjXyp-1" vertex="1">
                    <mxGeometry x="325" y="215" width="30" height="30" as="geometry"/>
                </mxCell>
                <mxCell id="Rb279vgmRleAhh0W8-I5-6" value="" style="rounded=1;whiteSpace=wrap;html=1;strokeWidth=2;fillWeight=4;hachureGap=8;hachureAngle=45;fillColor=#0000CC;sketch=1;glass=0;fillStyle=solid;fontSize=14;fontColor=#FF3333;arcSize=0;" parent="xGAVFQmcOM1XZsZsjXyp-1" vertex="1">
                    <mxGeometry x="325" y="260" width="30" height="30" as="geometry"/>
                </mxCell>
                <mxCell id="Rb279vgmRleAhh0W8-I5-7" value="" style="rounded=1;whiteSpace=wrap;html=1;strokeWidth=2;fillWeight=4;hachureGap=8;hachureAngle=45;fillColor=#FF3333;sketch=1;glass=0;fillStyle=solid;fontSize=14;fontColor=#FF3333;arcSize=0;" parent="xGAVFQmcOM1XZsZsjXyp-1" vertex="1">
                    <mxGeometry x="415" y="170" width="30" height="30" as="geometry"/>
                </mxCell>
                <mxCell id="Rb279vgmRleAhh0W8-I5-9" value="" style="rounded=1;whiteSpace=wrap;html=1;strokeWidth=2;fillWeight=4;hachureGap=8;hachureAngle=45;fillColor=#FF3333;sketch=1;glass=0;fillStyle=solid;fontSize=14;fontColor=#FF3333;arcSize=0;" parent="xGAVFQmcOM1XZsZsjXyp-1" vertex="1">
                    <mxGeometry x="415" y="215" width="30" height="30" as="geometry"/>
                </mxCell>
                <mxCell id="Rb279vgmRleAhh0W8-I5-10" value="" style="rounded=1;whiteSpace=wrap;html=1;strokeWidth=2;fillWeight=4;hachureGap=8;hachureAngle=45;fillColor=#FF3333;sketch=1;glass=0;fillStyle=solid;fontSize=14;fontColor=#FF3333;arcSize=0;" parent="xGAVFQmcOM1XZsZsjXyp-1" vertex="1">
                    <mxGeometry x="415" y="260" width="30" height="30" as="geometry"/>
                </mxCell>
            </root>
        </mxGraphModel>
    </diagram>
    <diagram id="wHeKaLPO1xWpuU_uPZHu" name="container-embedding-mfe">
        <mxGraphModel dx="438" dy="495" grid="1" gridSize="10" guides="1" tooltips="1" connect="1" arrows="1" fold="1" page="1" pageScale="1" pageWidth="850" pageHeight="1100" math="0" shadow="0">
            <root>
                <mxCell id="qZPa1fO29OUZyFsJHgkH-0"/>
                <mxCell id="qZPa1fO29OUZyFsJHgkH-1" parent="qZPa1fO29OUZyFsJHgkH-0"/>
                <mxCell id="DfvvTynhoAPi5q_5kiRm-0" value="" style="rounded=1;whiteSpace=wrap;html=1;strokeWidth=2;fillWeight=4;hachureGap=8;hachureAngle=45;fillColor=none;sketch=1;glass=0;fillStyle=hachure;fontSize=14;fontColor=#FF3333;" parent="qZPa1fO29OUZyFsJHgkH-1" vertex="1">
                    <mxGeometry x="290" y="150" width="170" height="160" as="geometry"/>
                </mxCell>
                <mxCell id="DfvvTynhoAPi5q_5kiRm-3" value="MFE 1" style="text;html=1;strokeColor=none;fillColor=none;align=center;verticalAlign=middle;whiteSpace=wrap;rounded=0;dashed=1;strokeWidth=3;fontColor=#FF3333;fontStyle=1" parent="qZPa1fO29OUZyFsJHgkH-1" vertex="1">
                    <mxGeometry x="395" y="186" width="60" height="30" as="geometry"/>
                </mxCell>
                <mxCell id="DfvvTynhoAPi5q_5kiRm-7" value="" style="rounded=1;whiteSpace=wrap;html=1;strokeWidth=2;fillWeight=4;hachureGap=8;hachureAngle=45;fillColor=#FF3333;sketch=1;glass=0;fillStyle=solid;fontSize=14;fontColor=#FF3333;arcSize=0;" parent="qZPa1fO29OUZyFsJHgkH-1" vertex="1">
                    <mxGeometry x="309" y="186" width="80" height="30" as="geometry"/>
                </mxCell>
                <mxCell id="DfvvTynhoAPi5q_5kiRm-8" value="" style="rounded=1;whiteSpace=wrap;html=1;strokeWidth=2;fillWeight=4;hachureGap=8;hachureAngle=45;fillColor=#FF3333;sketch=1;glass=0;fillStyle=solid;fontSize=14;fontColor=#FF3333;arcSize=0;" parent="qZPa1fO29OUZyFsJHgkH-1" vertex="1">
                    <mxGeometry x="309" y="226" width="80" height="30" as="geometry"/>
                </mxCell>
                <mxCell id="DfvvTynhoAPi5q_5kiRm-9" value="" style="rounded=1;whiteSpace=wrap;html=1;strokeWidth=2;fillWeight=4;hachureGap=8;hachureAngle=45;fillColor=#FF3333;sketch=1;glass=0;fillStyle=solid;fontSize=14;fontColor=#FF3333;arcSize=0;" parent="qZPa1fO29OUZyFsJHgkH-1" vertex="1">
                    <mxGeometry x="309" y="266" width="80" height="30" as="geometry"/>
                </mxCell>
                <mxCell id="DfvvTynhoAPi5q_5kiRm-10" value="Container" style="text;html=1;strokeColor=none;fillColor=none;align=center;verticalAlign=middle;whiteSpace=wrap;rounded=0;dashed=1;strokeWidth=3;fontColor=#000000;fontStyle=1" parent="qZPa1fO29OUZyFsJHgkH-1" vertex="1">
                    <mxGeometry x="297" y="150" width="60" height="30" as="geometry"/>
                </mxCell>
                <mxCell id="DfvvTynhoAPi5q_5kiRm-11" value="MFE 2" style="text;html=1;strokeColor=none;fillColor=none;align=center;verticalAlign=middle;whiteSpace=wrap;rounded=0;dashed=1;strokeWidth=3;fontColor=#FF3333;fontStyle=1" parent="qZPa1fO29OUZyFsJHgkH-1" vertex="1">
                    <mxGeometry x="395" y="226" width="60" height="30" as="geometry"/>
                </mxCell>
                <mxCell id="DfvvTynhoAPi5q_5kiRm-12" value="MFE .. N" style="text;html=1;strokeColor=none;fillColor=none;align=center;verticalAlign=middle;whiteSpace=wrap;rounded=0;dashed=1;strokeWidth=3;fontColor=#FF3333;fontStyle=1" parent="qZPa1fO29OUZyFsJHgkH-1" vertex="1">
                    <mxGeometry x="395" y="266" width="60" height="30" as="geometry"/>
                </mxCell>
            </root>
        </mxGraphModel>
    </diagram>
</mxfile>